# xmcd CD database file
#
# Track frame offsets:
#	150
#	25895
#	43905
#	59945
#	82297
#	102185
#	125630
#	143390
#	166702
#
# Disc length: 2591 seconds
#
# Revision: 0
# Processed by: cddbd v1.5.2PL0 Copyright (c) Steve Scherf et al.
# Submitted via: CDex 1.51
#
DISCID=7d0a1d09
DTITLE=Jimmie Spheeris - An Evening With Jimmie Spheeris
DYEAR=1999
DGENRE=Blues
TTITLE0=Monte Luna
TTITLE1=Play That Song
TTITLE2=Nightingale Come Sail
TTITLE3=Let It Flow
TTITLE4=Seeds Of Spring
TTITLE5=Tequila Moonlight
TTITLE6=Emerald and The Dream Dance
TTITLE7=Hills In My Head
TTITLE8=Ain't No Use Walkin' (When You Can Stroll)
EXTD=YEAR: 1999
EXTT0=
EXTT1=
EXTT2=
EXTT3=
EXTT4=
EXTT5=
EXTT6=
EXTT7=
EXTT8=
PLAYORDER=
